<svg version="1.0" xmlns="http://www.w3.org/2000/svg" width="800" height="800" viewBox="0 0 600 333"><path d="M413.4 10c-16.9 3.1-29.5 8.3-44.5 18.6-26.5 18-49.1 46.3-87 108.6-21.4 35.1-25.5 41.4-38.3 58.8-10 13.7-21.8 25.8-32.7 33.7-12.1 8.8-20.7 12.1-33.9 12.9-24.3 1.6-44.8-6.1-61.6-23-10.9-11-16.8-20.6-21.6-35.1-2.8-8.4-3-10.1-3.1-24 0-12.5.3-16.3 2.1-22.5 3.3-11.4 7.5-19 14.9-27 8.2-8.8 14.7-13.7 25-18.8 23-11.4 48.6-11.5 72.6-.3 6.6 3.1 18.3 11.3 22.5 15.8 1.2 1.4 2.7 2.3 3.2 2.1.6-.2 9.8-13.4 20.5-29.3l19.5-29-4.2-3.8c-8.6-7.6-30-20.2-41.8-24.5-38.4-14.3-79-13.7-115.7 1.7-34.4 14.3-64.1 42.7-79.5 75.9-5 10.9-10 26-12.4 37.7-2.3 11.1-2.6 44.2-.6 54.5 8.8 44.1 31.5 79 66.5 102.3 17.2 11.5 30.9 17.3 53.7 22.8 8.4 2.1 11.9 2.3 30.5 2.3 19.7 0 21.6-.2 30.6-2.7 21.8-6 37-14.1 54.9-29.3 25.5-21.5 43.9-45.8 82-107.9 8.5-13.8 18.7-30 22.8-36 31.7-46.7 55-62.2 86.3-57.2 31 4.9 54 27 63.1 60.6 2.9 10.6 3.1 32.6.4 42.6-4.3 16-12 28.9-23.9 40.1-22.3 21.2-53.5 28.3-83.2 19-9-2.9-20.8-9.4-27.5-15.4l-4.5-4-19 28.4c-10.4 15.6-19.3 29-19.7 29.8-2.1 3.8 29.4 22.3 48.3 28.3 13.7 4.4 17.6 5.2 33.2 7 21.1 2.5 40.8.3 63.6-7 21.1-6.7 45-21.5 61-37.6 19.4-19.6 37.1-50 43.7-74.8 7-26.4 7-58 .1-82.3-9.5-33.3-30-62.7-57.9-83-14.9-10.8-28.2-17.4-48.3-24-13.8-4.5-47.3-7.3-60.1-5z"/></svg>