<svg width="26" height="20" viewBox="0 0 26 20" fill="none" xmlns="http://www.w3.org/2000/svg">
<path d="M16.4226 6.41081e-07C16.7463 6.41081e-07 17.1526 0.0850011 17.4788 0.165002C18.6163 0.440003 19.9651 0.781256 20.9226 1.50001C21.8139 2.16876 22.5064 3.33502 23.0414 4.52003C24.1539 6.9888 24.9276 10.2801 25.1951 12.7826C25.3226 13.9701 25.3539 15.1651 25.1251 15.9689C25.0126 16.3639 24.7689 16.6614 24.5976 16.8439C24.0751 17.3976 23.4026 17.8114 22.7376 18.1876L22.4076 18.3739C22.1903 18.4948 21.9715 18.6131 21.7514 18.7289L21.0989 19.0664L20.2026 19.5126L19.4813 19.8676C19.2174 19.9998 18.9152 20.0344 18.6282 19.9651C18.3413 19.8958 18.0881 19.7273 17.9135 19.4892C17.7389 19.2511 17.6542 18.959 17.6744 18.6645C17.6946 18.37 17.8184 18.0921 18.0238 17.8801L17.4813 16.7951C15.9214 17.2692 14.2992 17.5068 12.6688 17.5001C10.9563 17.5001 9.32253 17.2501 7.85627 16.7951L7.31502 17.8776C7.52121 18.0893 7.64577 18.3671 7.66659 18.6618C7.68741 18.9566 7.60315 19.2492 7.42875 19.4877C7.25435 19.7262 7.0011 19.8953 6.71392 19.9648C6.42674 20.0344 6.12421 19.9999 5.86001 19.8676L5.18 19.5301C4.425 19.1576 3.66999 18.7851 2.93499 18.3739C2.16748 17.9451 1.35373 17.4889 0.744973 16.8426C0.502041 16.5971 0.321201 16.2971 0.21747 15.9676C-0.0125315 15.1651 0.0199687 13.9713 0.14622 12.7826C0.413721 10.2801 1.18748 6.9888 2.30123 4.52003C2.83499 3.33502 3.52749 2.16876 4.41875 1.50001C5.37625 0.781256 6.72501 0.440003 7.86252 0.165002C8.18877 0.0850011 8.59378 6.41081e-07 8.91878 6.41081e-07C9.09855 -0.000154607 9.27625 0.03847 9.43974 0.113239C9.60323 0.188009 9.74867 0.297164 9.86613 0.433258C9.9836 0.569351 10.0703 0.729181 10.1204 0.901843C10.1705 1.0745 10.1827 1.25594 10.1563 1.43376C10.9881 1.31068 11.8279 1.24926 12.6688 1.25001C13.5326 1.25001 14.3763 1.31251 15.1863 1.43501C15.1597 1.25709 15.1718 1.07552 15.2218 0.902709C15.2718 0.729893 15.3584 0.569902 15.4759 0.433665C15.5934 0.297429 15.7389 0.188156 15.9025 0.113313C16.0661 0.0384694 16.2427 -0.000181545 16.4226 6.41081e-07ZM18.1151 2.95377C17.9276 2.89377 17.8826 2.92002 17.8151 3.03252L17.7376 3.17252C17.5355 3.51885 17.2288 3.79212 16.8615 3.95296C16.4942 4.1138 16.0854 4.15391 15.6938 4.06753C14.6997 3.85412 13.6856 3.74768 12.6688 3.75003C11.6038 3.75003 10.585 3.86253 9.64378 4.06753C9.25224 4.15391 8.84339 4.1138 8.4761 3.95296C8.10882 3.79212 7.80206 3.51885 7.60002 3.17252L7.52252 3.03377C7.45627 2.92127 7.41127 2.89502 7.22502 2.95377C6.78001 3.09502 6.30251 3.24627 5.91876 3.50002C5.56001 3.76878 5.08125 4.43753 4.58 5.54879C3.62249 7.67005 2.87249 10.8038 2.63249 13.0488C2.58249 13.5226 2.55624 13.9288 2.54999 14.2638V14.6313C2.55499 14.8538 2.57124 15.0301 2.59374 15.1589C2.91124 15.4689 3.30374 15.7126 3.69749 15.9364L4.55 16.4076L5.1075 16.7014L5.56251 15.7914C5.34221 15.5861 5.20341 15.3082 5.17163 15.0088C5.13984 14.7094 5.21719 14.4085 5.38948 14.1616C5.56176 13.9147 5.81739 13.7382 6.10937 13.6647C6.40135 13.5911 6.71007 13.6255 6.97876 13.7613C8.49877 14.5251 10.4763 15.0001 12.6688 15.0001C14.8601 15.0001 16.8388 14.5226 18.3588 13.7626C18.6161 13.6337 18.9098 13.5975 19.1906 13.6601C19.4714 13.7227 19.7221 13.8802 19.9002 14.1061C20.0784 14.332 20.1732 14.6124 20.1686 14.9001C20.164 15.1877 20.0603 15.465 19.8751 15.6851L19.7751 15.7914L20.2301 16.7039C20.6026 16.5114 20.9764 16.3076 21.3514 16.1001C21.8389 15.8301 22.3514 15.5464 22.7476 15.1589C22.7701 15.0301 22.7851 14.8538 22.7914 14.6313V14.2638C22.7812 13.8574 22.7537 13.4516 22.7089 13.0476C22.4689 10.8038 21.7189 7.67005 20.7614 5.54754C20.2614 4.43753 19.7813 3.76878 19.4238 3.50002C19.0388 3.24627 18.5613 3.09502 18.1151 2.95377ZM8.60628 8.12505C9.18644 8.12505 9.74284 8.35552 10.1531 8.76576C10.5633 9.176 10.7938 9.7324 10.7938 10.3126C10.7938 10.8927 10.5633 11.4491 10.1531 11.8594C9.74284 12.2696 9.18644 12.5001 8.60628 12.5001C8.02611 12.5001 7.46971 12.2696 7.05947 11.8594C6.64923 11.4491 6.41876 10.8927 6.41876 10.3126C6.41876 9.7324 6.64923 9.176 7.05947 8.76576C7.46971 8.35552 8.02611 8.12505 8.60628 8.12505ZM16.7313 8.12505C17.3115 8.12505 17.8679 8.35552 18.2781 8.76576C18.6884 9.176 18.9188 9.7324 18.9188 10.3126C18.9188 10.8927 18.6884 11.4491 18.2781 11.8594C17.8679 12.2696 17.3115 12.5001 16.7313 12.5001C16.1512 12.5001 15.5948 12.2696 15.1845 11.8594C14.7743 11.4491 14.5438 10.8927 14.5438 10.3126C14.5438 9.7324 14.7743 9.176 15.1845 8.76576C15.5948 8.35552 16.1512 8.12505 16.7313 8.12505Z" fill="white"/>
</svg>
