<svg width="22" height="22" viewBox="0 0 22 22" fill="none" xmlns="http://www.w3.org/2000/svg">
<path d="M4.91318 4.6136C4.63849 3.9126 4.64948 3.11162 4.77144 2.37877C5.61108 2.63035 6.39965 3.02835 7.10076 3.55441C7.40841 3.78954 7.81164 3.86536 8.18741 3.75219C9.15163 3.4637 10.153 3.31858 11.1595 3.32148C12.2154 3.32148 13.2185 3.4753 14.1294 3.75109C14.5051 3.86536 14.9084 3.78844 15.2149 3.55331C15.9157 3.02737 16.7039 2.62937 17.5431 2.37767C17.6651 3.11052 17.675 3.9115 17.4025 4.6114C17.2377 5.03331 17.3201 5.51895 17.6311 5.86396C18.4265 6.74624 18.8506 7.76038 18.8506 8.81516C18.8506 11.1379 16.6861 13.4156 13.2097 14.1089C12.3395 14.2825 12 15.3779 12.6659 16.0053C13.0933 16.4074 13.357 16.9744 13.357 17.6051V20.9013C13.357 21.1927 13.4727 21.4721 13.6788 21.6782C13.8848 21.8842 14.1643 22 14.4557 22C14.7471 22 15.0266 21.8842 15.2326 21.6782C15.4387 21.4721 15.5544 21.1927 15.5544 20.9013V17.6051C15.5544 16.9788 15.4226 16.3833 15.1875 15.8438C18.5023 14.6934 21.0481 12.1037 21.0481 8.81516C21.0481 7.33517 20.5163 5.97493 19.634 4.83554C19.8648 3.93458 19.8439 3.02702 19.756 2.33042C19.678 1.70634 19.5692 0.888878 19.1297 0.401039C18.476 -0.323028 17.3937 0.103282 16.6246 0.36588C15.7996 0.645056 15.0146 1.03106 14.2898 1.51406C13.2669 1.25301 12.2152 1.12196 11.1595 1.12401C10.0673 1.12401 9.01366 1.26135 8.02699 1.51516C7.30218 1.03215 6.51724 0.646143 5.69218 0.366979C4.92306 0.103282 3.83971 -0.323028 3.18596 0.401039C2.73768 0.897668 2.64428 1.6503 2.56408 2.28977L2.55858 2.33152C2.47068 3.02922 2.45091 3.93787 2.68164 4.83993C1.80265 5.97823 1.27086 7.33626 1.27086 8.81516C1.27086 12.1026 3.81664 14.6934 7.13152 15.8438C6.89159 16.3924 6.76669 16.9843 6.76455 17.5831L6.57996 17.6204C5.79216 17.7292 5.28784 17.6314 4.94504 17.4864C4.11 17.1326 3.67929 16.2415 3.1541 15.5603C2.82667 15.1373 2.34982 14.6088 1.61806 14.3649C1.48113 14.3193 1.33657 14.3011 1.19261 14.3114C1.04866 14.3217 0.908135 14.3602 0.77907 14.4248C0.518413 14.5552 0.320246 14.7838 0.228163 15.0604C0.136079 15.3369 0.157623 15.6387 0.288055 15.8994C0.418486 16.16 0.647121 16.3582 0.923663 16.4503C1.53676 16.6546 1.96087 17.705 2.34982 18.1709C2.75965 18.6631 3.30462 19.1773 4.08583 19.5092C4.83516 19.8278 5.71525 19.941 6.76455 19.8124V20.9013C6.76455 21.1927 6.88031 21.4721 7.08636 21.6782C7.29241 21.8842 7.57188 22 7.86328 22C8.15469 22 8.43415 21.8842 8.64021 21.6782C8.84626 21.4721 8.96202 21.1927 8.96202 20.9013V17.6051C8.96202 16.9744 9.22571 16.4074 9.65312 16.0053C10.3201 15.3768 9.97945 14.2825 9.10925 14.1089C5.63175 13.4156 3.46834 11.1379 3.46834 8.81516C3.46834 7.76257 3.89135 6.74844 4.68574 5.86615C4.99668 5.52115 5.07799 5.03551 4.91318 4.6136Z" fill="white"/>
</svg>
