<svg width="27" height="16" viewBox="0 0 27 16" fill="none" xmlns="http://www.w3.org/2000/svg">
<path d="M8.29394 0C10.4157 0 12.4505 0.842855 13.9508 2.34315C15.4511 3.84344 16.2939 5.87827 16.2939 8C16.2939 10.1217 15.4511 12.1566 13.9508 13.6569C12.4505 15.1571 10.4157 16 8.29394 16C6.17221 16 4.13738 15.1571 2.63709 13.6569C1.1368 12.1566 0.293945 10.1217 0.293945 8C0.293945 5.87827 1.1368 3.84344 2.63709 2.34315C4.13738 0.842855 6.17221 0 8.29394 0ZM20.2939 1.33333C22.2939 1.33333 23.6273 4.31867 23.6273 8C23.6273 11.6813 22.2939 14.6667 20.2939 14.6667C18.2939 14.6667 16.9606 11.6813 16.9606 8C16.9606 4.31867 18.2939 1.33333 20.2939 1.33333ZM25.6273 2C26.1339 2 26.5766 3.10267 26.8006 4.99467L26.8633 5.58533L26.8886 5.89867L26.9286 6.55733L26.9419 6.90267L26.9579 7.624L26.9606 8L26.9579 8.376L26.9419 9.09733L26.9286 9.444L26.8886 10.1013L26.8619 10.4147L26.8019 11.0053C26.5766 12.8987 26.1353 14 25.6273 14C25.1206 14 24.6779 12.8973 24.4539 11.0053L24.3913 10.4147C24.3821 10.3103 24.3737 10.2058 24.3659 10.1013L24.3259 9.44267C24.3208 9.32758 24.3163 9.21247 24.3126 9.09733L24.2966 8.376V7.624L24.3126 6.90267L24.3259 6.556L24.3659 5.89867L24.3926 5.58533L24.4526 4.99467C24.6779 3.10133 25.1193 2 25.6273 2Z" fill="white"/>
</svg>
