<svg width="26" height="22" viewBox="0 0 26 22" fill="none" xmlns="http://www.w3.org/2000/svg">
<path fill-rule="evenodd" clip-rule="evenodd" d="M5.42092 13.325C5.47409 13.3427 5.52876 13.3555 5.58425 13.3633C5.93432 14.1882 6.28243 15.014 6.62857 15.8405C7.25096 17.3278 7.87829 18.8596 8.01564 19.3001C8.18763 19.8421 8.36828 20.2108 8.56626 20.4632C8.66896 20.5919 8.7865 20.7058 8.92509 20.7924C8.99728 20.8375 9.07452 20.8741 9.15523 20.9013C9.55118 21.0497 9.91249 20.9879 10.1389 20.9124C10.2718 20.867 10.3982 20.8047 10.5151 20.7268L10.5213 20.7243L14.018 18.5441L18.0579 21.64C18.1173 21.6857 18.1817 21.7241 18.251 21.755C18.736 21.9654 19.2062 22.0396 19.6492 21.9802C20.0897 21.9184 20.4398 21.734 20.7009 21.5249C21.0007 21.2833 21.2397 20.9747 21.3988 20.6241L21.4099 20.5969L21.4136 20.587L21.4161 20.582V20.5796L21.4173 20.5783C21.4388 20.5251 21.4554 20.47 21.4668 20.4137L25.1541 1.82262C25.1658 1.76311 25.1716 1.70261 25.1714 1.64197C25.1714 1.09754 24.966 0.57909 24.4847 0.266041C24.0714 -0.00246277 23.6124 -0.0148364 23.3216 0.00743585C23.0098 0.0321828 22.7203 0.108898 22.526 0.170766C22.4173 0.205232 22.3099 0.244033 22.2043 0.287076L22.1907 0.293263L1.50967 8.4053L1.5072 8.40654C1.43722 8.43228 1.36829 8.46076 1.30056 8.49192C1.13656 8.56565 0.979249 8.65341 0.830368 8.75424C0.549491 8.94602 -0.0976416 9.47313 0.0124822 10.3442C0.0990965 11.0371 0.574237 11.464 0.865014 11.6694C1.02339 11.782 1.17435 11.8624 1.28571 11.9157C1.33521 11.9404 1.44162 11.9825 1.4874 12.0023L1.49977 12.006L5.42092 13.325ZM22.9145 2.0008H22.912C22.9014 2.00553 22.8907 2.01007 22.8799 2.01441L2.17413 10.1376C2.16347 10.1419 2.15275 10.146 2.14195 10.15L2.12958 10.1537C2.09176 10.1685 2.0546 10.1851 2.01822 10.2032C2.05266 10.2229 2.08819 10.2407 2.12463 10.2564L6.01237 11.5655C6.08185 11.5889 6.1483 11.6205 6.21035 11.6595L19.0503 4.14265L19.0627 4.13646C19.1125 4.10615 19.1637 4.07808 19.2161 4.05232C19.3052 4.00654 19.4475 3.93972 19.6083 3.89023C19.7197 3.85558 20.0501 3.75783 20.4064 3.87291C20.5954 3.93248 20.7639 4.04402 20.8925 4.19477C21.0212 4.34551 21.1049 4.52941 21.134 4.72544C21.1801 4.89712 21.1813 5.07775 21.1377 5.25007C21.0511 5.59034 20.8135 5.85513 20.597 6.05806C20.4114 6.23129 18.0035 8.55255 15.629 10.8441L12.3958 13.9622L11.8205 14.519L19.0862 20.0896C19.1842 20.1307 19.2908 20.1477 19.3967 20.1391C19.4501 20.1318 19.5004 20.1095 19.5415 20.0747C19.5917 20.0324 19.6347 19.9822 19.669 19.9262L19.6714 19.925L23.2474 1.89315C23.1347 1.92025 23.0243 1.95582 22.917 1.99956L22.9145 2.0008ZM12.4453 17.3365L10.9952 16.2253L10.6438 18.4587L12.4453 17.3365ZM9.66502 14.0204L11.1065 12.6284L14.3397 9.50778L15.5437 8.34715L7.47615 13.0701L7.51946 13.1716C8.02826 14.3736 8.53146 15.5779 9.02902 16.7846L9.37919 14.5574C9.41088 14.3508 9.51163 14.1623 9.66502 14.0204Z" fill="white"/>
</svg>
