<?xml version="1.0" encoding="utf-8"?>
<!-- Generator: Adobe Illustrator 20.1.0, SVG Export Plug-In . SVG Version: 6.00 Build 0)  -->
<svg version="1.1" id="Layer_1" xmlns="http://www.w3.org/2000/svg" xmlns:xlink="http://www.w3.org/1999/xlink" x="0px" y="0px"
     viewBox="0 0 431 190" style="enable-background:new 0 0 431 188;" xml:space="preserve">
<style type="text/css">
	.st0{fill:url(#SVGID_1_);}
</style>
  <linearGradient id="SVGID_1_" gradientUnits="userSpaceOnUse" x1="2.2678" y1="103.6775" x2="330.9431" y2="94.3244" gradientTransform="matrix(1 0 0 -1 0 192.6)">
	<stop  offset="0" style="stop-color:red"/>
    <stop  offset="0.1468" style="stop-color:#09d1fd"/>
    <stop  offset="0.6142" style="stop-color:blue"/>
    <stop  offset="1" style="stop-color:#ED0288"/>
</linearGradient>
  <path class="st0" d="M338.8,0c-25.1,0-47,8-65.3,23.9l-0.5,0.4c-26,25.9-45.3,45.1-57.9,57.6c-45.8-46-50.5-50.7-57.7-57.7
	c-14.6-14.2-36.9-24-63.6-24C74.7,0.2,52.2,8,34.7,22C13.2,39.1,0.5,64,0.1,95c-0.4,29.6,12,54.4,33.3,72
	c17.9,14.8,41.2,23.3,60.6,22.9c16.2-0.3,29.9-3.7,41.9-9.8c9.4-4.8,16.9-10.7,25.7-19.2c0.8-0.7,12.8-12.3,19-18.2
	c10.5-10.1,21.8-21.2,34.5-33.8c28.6,28.7,44.1,44.1,52.2,51.9c4.7,5,7,7.3,10.9,10.4c14.7,12,33.7,18.7,60.7,18.7
	c20.3,0,42.9-8.6,60.2-23.7c20-17.4,31.7-41.9,31.8-71C432.8,44.1,388.1,0,338.8,0z M167.4,128.7c-6.1,5.9-18.2,17.5-19.1,18.3
	c-7.5,7.3-13.6,12.1-21.1,15.9c-9.4,4.8-20.3,7.5-33.7,7.8c-14.7,0.3-33.6-6.6-48.1-18.6c-17-14.1-26.7-33.5-26.5-57.2
	c0.3-25.2,10.3-44.7,27.5-58.3C60.5,25.4,78.9,19,93.7,19c21.6,0,39.2,7.8,50.4,18.7c7.1,6.9,12,11.8,57.5,57.5
	C189.1,107.6,177.8,118.6,167.4,128.7z M411.3,95c0,23.5-9.2,42.9-25.2,56.8c-13.9,12.1-32.1,19-47.7,19c-22.6,0-37.4-5.2-48.7-14.4
	c-3-2.5-9.6-9.3-9.6-9.3c-7.9-7.6-23.4-23-52-51.8c12.6-12.5,31.8-31.7,57.7-57.4c14.8-12.7,32.1-19,52.6-19
	C377.1,19,413,54.4,411.3,95z"/>
</svg>
