<svg width="3507" height="2260" xmlns="http://www.w3.org/2000/svg" xmlns:xlink="http://www.w3.org/1999/xlink" overflow="hidden"><defs><clipPath id="clip0"><rect x="1365" y="7878" width="3507" height="2260"/></clipPath><clipPath id="clip1"><rect x="1370" y="7878" width="3502" height="2260"/></clipPath><clipPath id="clip2"><rect x="1370" y="7878" width="3502" height="2260"/></clipPath><clipPath id="clip3"><rect x="1370" y="7878" width="3502" height="2260"/></clipPath><clipPath id="clip4"><rect x="1611" y="8055" width="3214" height="1863"/></clipPath><clipPath id="clip5"><rect x="1611" y="8055" width="3214" height="1863"/></clipPath><clipPath id="clip6"><rect x="1611" y="8055" width="3214" height="1863"/></clipPath><clipPath id="clip7"><rect x="1611" y="8055" width="3214" height="1863"/></clipPath><clipPath id="clip8"><rect x="1611" y="8055" width="3214" height="1863"/></clipPath><clipPath id="clip9"><rect x="1611" y="8055" width="3214" height="1863"/></clipPath><clipPath id="clip10"><rect x="1611" y="8055" width="3214" height="1863"/></clipPath><clipPath id="clip11"><rect x="1611" y="8055" width="3214" height="1863"/></clipPath><clipPath id="clip12"><rect x="1611" y="8055" width="3214" height="1863"/></clipPath><clipPath id="clip13"><rect x="1611" y="8055" width="3214" height="1863"/></clipPath><clipPath id="clip14"><rect x="1370" y="7878" width="3502" height="2260"/></clipPath><clipPath id="clip15"><rect x="1370" y="7878" width="3502" height="2260"/></clipPath><clipPath id="clip16"><rect x="1370" y="7878" width="3502" height="2260"/></clipPath><clipPath id="clip17"><rect x="1370" y="7878" width="3502" height="2260"/></clipPath><clipPath id="clip18"><rect x="1370" y="7878" width="3502" height="2260"/></clipPath><clipPath id="clip19"><rect x="1370" y="7878" width="3502" height="2260"/></clipPath><clipPath id="clip20"><rect x="1370" y="7878" width="3502" height="2260"/></clipPath><clipPath id="clip21"><rect x="1370" y="7878" width="3502" height="2260"/></clipPath><clipPath id="clip22"><rect x="1370" y="7878" width="3502" height="2260"/></clipPath><clipPath id="clip23"><rect x="1370" y="7878" width="3502" height="2260"/></clipPath><clipPath id="clip24"><rect x="1370" y="7878" width="3502" height="2260"/></clipPath><clipPath id="clip25"><rect x="1370" y="7878" width="3502" height="2260"/></clipPath><clipPath id="clip26"><rect x="1370" y="7878" width="3502" height="2260"/></clipPath><clipPath id="clip27"><rect x="1370" y="7878" width="3502" height="2260"/></clipPath><clipPath id="clip28"><rect x="1370" y="7878" width="3502" height="2260"/></clipPath><clipPath id="clip29"><rect x="1370" y="7878" width="3502" height="2260"/></clipPath><clipPath id="clip30"><rect x="1370" y="7878" width="3502" height="2260"/></clipPath><clipPath id="clip31"><rect x="1370" y="7878" width="3502" height="2260"/></clipPath><clipPath id="clip32"><rect x="1370" y="7878" width="3502" height="2260"/></clipPath><clipPath id="clip33"><rect x="1370" y="7878" width="3502" height="2260"/></clipPath><clipPath id="clip34"><rect x="1370" y="7878" width="3502" height="2260"/></clipPath><clipPath id="clip35"><rect x="1370" y="7878" width="3502" height="2260"/></clipPath><clipPath id="clip36"><rect x="1370" y="7878" width="3502" height="2260"/></clipPath><clipPath id="clip37"><rect x="1370" y="7878" width="3502" height="2260"/></clipPath><clipPath id="clip38"><rect x="1370" y="7878" width="3502" height="2260"/></clipPath><clipPath id="clip39"><rect x="1370" y="7878" width="3502" height="2260"/></clipPath><clipPath id="clip40"><rect x="1370" y="7878" width="3502" height="2260"/></clipPath><clipPath id="clip41"><rect x="1370" y="7878" width="3502" height="2260"/></clipPath><clipPath id="clip42"><rect x="1370" y="7878" width="3502" height="2260"/></clipPath><clipPath id="clip43"><rect x="1370" y="7878" width="3502" height="2260"/></clipPath><clipPath id="clip44"><rect x="1370" y="7878" width="3502" height="2260"/></clipPath><clipPath id="clip45"><rect x="1370" y="7878" width="3502" height="2260"/></clipPath><clipPath id="clip46"><rect x="1370" y="7878" width="3502" height="2260"/></clipPath><clipPath id="clip47"><rect x="1370" y="7878" width="3502" height="2260"/></clipPath><clipPath id="clip48"><rect x="1370" y="7878" width="3502" height="2260"/></clipPath><clipPath id="clip49"><rect x="1370" y="7878" width="3502" height="2260"/></clipPath><clipPath id="clip50"><rect x="1370" y="7878" width="3502" height="2260"/></clipPath></defs><g clip-path="url(#clip0)" transform="translate(-1365 -7878)"><g clip-path="url(#clip1)"><path d="M1611.5 9728.82 4821.5 9728.82M1611.5 9542.81 4821.5 9542.81M1611.5 9356.81 4821.5 9356.81M1611.5 9170.8 4821.5 9170.8M1611.5 8984.79 4821.5 8984.79M1611.5 8799.79 4821.5 8799.79M1611.5 8613.78 4821.5 8613.78M1611.5 8427.78 4821.5 8427.78M1611.5 8241.77 4821.5 8241.77M1611.5 8055.5 4821.5 8055.5" stroke="#D9D9D9" stroke-width="3.4375" stroke-linecap="butt" stroke-linejoin="round" stroke-miterlimit="10" stroke-opacity="1" fill="none" fill-rule="nonzero"/></g><g clip-path="url(#clip2)"><path d="M1611.5 9914.5 4821.5 9914.5" stroke="#D9D9D9" stroke-width="3.4375" stroke-linecap="butt" stroke-linejoin="round" stroke-miterlimit="10" stroke-opacity="1" fill="none" fill-rule="evenodd"/></g><g clip-path="url(#clip3)"><path d="M1611.5 9914.5 1611.5 9929.5M2413.58 9914.5 2413.58 9929.5M3216.61 9914.5 3216.61 9929.5M4018.63 9914.5 4018.63 9929.5M4821.5 9914.5 4821.5 9929.5" stroke="#D9D9D9" stroke-width="3.4375" stroke-linecap="butt" stroke-linejoin="round" stroke-miterlimit="10" stroke-opacity="1" fill="none" fill-rule="nonzero"/></g><g clip-path="url(#clip4)"><path d="M1645 9636 1712.06 9636 1779.06 9636 1845.06 9636 1912.06 9636 1979.06 9636 2046.07 9636 2113.07 9636 2180.07 9636 2247.07 9636 2314.08 9636 2380.08 9636 2447.08 9636 2514.08 9636 2581.08 9636 2648.09 9636 2715.09 9636 2782.09 9636 2849.09 9636 2915.1 9636 2982.1 9636 3049.1 9636 3116.1 9636 3183.1 9636 3250.11 9636 3317.11 9636 3384.11 9636 3450.11 9636 3517.12 9636 3584.12 9636 3651.12 9636 3718.12 9636 3785.12 9636 3852.13 9636 3919.13 9636 3986.13 9636 4052.13 9636 4119.14 9636 4186.14 9636 4253.14 9636 4320.14 9636 4387.14 9636 4454.15 9636 4521.15 9636 4587.15 9636 4654.15 9636 4721.15 9636 4788 9636" stroke="#4472C4" stroke-width="10.3125" stroke-linecap="round" stroke-linejoin="round" stroke-miterlimit="10" stroke-opacity="1" fill="none" fill-rule="nonzero"/></g><g clip-path="url(#clip5)"><path d="M1645 9543 1712.06 9543 1779.06 9543 1845.06 9543 1912.06 9543 1979.06 9543 2046.07 9543 2113.07 9543 2180.07 9543 2247.07 9543 2314.08 9543 2380.08 9543 2447.08 9543 2514.08 9543 2581.08 9543 2648.09 9543 2715.09 9543 2782.09 9543 2849.09 9543 2915.1 9543 2982.1 9543 3049.1 9543 3116.1 9543 3183.1 9543 3250.11 9543 3317.11 9543 3384.11 9543 3450.11 9543 3517.12 9543 3584.12 9543 3651.12 9543 3718.12 9543 3785.12 9543 3852.13 9543 3919.13 9543 3986.13 9543 4052.13 9543 4119.14 9543 4186.14 9543 4253.14 9543 4320.14 9543 4387.14 9543 4454.15 9543 4521.15 9543 4587.15 9543 4654.15 9543 4721.15 9543 4788 9543" stroke="#ED7D31" stroke-width="10.3125" stroke-linecap="round" stroke-linejoin="round" stroke-miterlimit="10" stroke-opacity="1" fill="none" fill-rule="nonzero"/></g><g clip-path="url(#clip6)"><path d="M1645 9469 1712.06 9469 1779.06 9469 1845.06 9469 1912.06 9469 1979.06 9469 2046.07 9469 2113.07 9469 2180.07 9469 2247.07 9469 2314.08 9469 2380.08 9469 2447.08 9469 2514.08 9469 2581.08 9469 2648.09 9469 2715.09 9469 2782.09 9469 2849.09 9469 2915.1 9469 2982.1 9469 3049.1 9469 3116.1 9469 3183.1 9469 3250.11 9469 3317.11 9469 3384.11 9469 3450.11 9469 3517.12 9469 3584.12 9469 3651.12 9469 3718.12 9469 3785.12 9469 3852.13 9469 3919.13 9469 3986.13 9469 4052.13 9469 4119.14 9469 4186.14 9469 4253.14 9469 4320.14 9469 4387.14 9469 4454.15 9469 4521.15 9469 4587.15 9469 4654.15 9469 4721.15 9469 4788 9469" stroke="#A5A5A5" stroke-width="10.3125" stroke-linecap="round" stroke-linejoin="round" stroke-miterlimit="10" stroke-opacity="1" fill="none" fill-rule="nonzero"/></g><g clip-path="url(#clip7)"><path d="M1645 9376 1712.06 9376 1779.06 9376 1845.06 9376 1912.06 9376 1979.06 9376 2046.07 9376 2113.07 9376 2180.07 9376 2247.07 9376 2314.08 9376 2380.08 9376 2447.08 9376 2514.08 9376 2581.08 9376 2648.09 9376 2715.09 9376 2782.09 9376 2849.09 9376 2915.1 9376 2982.1 9376 3049.1 9376 3116.1 9376 3183.1 9376 3250.11 9376 3317.11 9376 3384.11 9376 3450.11 9376 3517.12 9376 3584.12 9376 3651.12 9376 3718.12 9376 3785.12 9376 3852.13 9376 3919.13 9376 3986.13 9376 4052.13 9376 4119.14 9376 4186.14 9376 4253.14 9376 4320.14 9376 4387.14 9376 4454.15 9376 4521.15 9376 4587.15 9376 4654.15 9376 4721.15 9376 4788 9376" stroke="#FFC000" stroke-width="10.3125" stroke-linecap="round" stroke-linejoin="round" stroke-miterlimit="10" stroke-opacity="1" fill="none" fill-rule="nonzero"/></g><g clip-path="url(#clip8)"><path d="M1645 9283 1712.06 9283 1779.06 9283 1845.06 9283 1912.06 9283 1979.06 9283 2046.07 9283 2113.07 9283 2180.07 9283 2247.07 9283 2314.08 9283 2380.08 9283 2447.08 9283 2514.08 9283 2581.08 9283 2648.09 9283 2715.09 9283 2782.09 9283 2849.09 9283 2915.1 9283 2982.1 9283 3049.1 9283 3116.1 9283 3183.1 9283 3250.11 9283 3317.11 9283 3384.11 9283 3450.11 9283 3517.12 9283 3584.12 9283 3651.12 9283 3718.12 9283 3785.12 9283 3852.13 9283 3919.13 9283 3986.13 9283 4052.13 9283 4119.14 9283 4186.14 9283 4253.14 9283 4320.14 9283 4387.14 9283 4454.15 9283 4521.15 9283 4587.15 9283 4654.15 9283 4721.15 9283 4788 9283" stroke="#5B9BD5" stroke-width="10.3125" stroke-linecap="round" stroke-linejoin="round" stroke-miterlimit="10" stroke-opacity="1" fill="none" fill-rule="nonzero"/></g><g clip-path="url(#clip9)"><path d="M1645 9261 1712.06 9258.3 1779.06 9254.3 1845.06 9251.3 1912.06 9248.3 1979.06 9245.3 2046.07 9242.3 2113.07 9239.3 2180.07 9236.3 2247.07 9233.3 2314.08 9230.3 2380.08 9227.3 2447.08 9223.3 2514.08 9220.3 2581.08 9217.3 2648.09 9214.3 2715.09 9211.3 2782.09 9208 2849.09 9208 2915.1 9208 2982.1 9208 3049.1 9208 3116.1 9208 3183.1 9208 3250.11 9208 3317.11 9208 3384.11 9208 3450.11 9208 3517.12 9208 3584.12 9208 3651.12 9208 3718.12 9208 3785.12 9208 3852.13 9208 3919.13 9208 3986.13 9208 4052.13 9208 4119.14 9208 4186.14 9208 4253.14 9208 4320.14 9208 4387.14 9208 4454.15 9208 4521.15 9208 4587.15 9208 4654.15 9208 4721.15 9208 4788 9208" stroke="#70AD47" stroke-width="10.3125" stroke-linecap="round" stroke-linejoin="round" stroke-miterlimit="10" stroke-opacity="1" fill="none" fill-rule="nonzero"/></g><g clip-path="url(#clip10)"><path d="M1645 9196 1712.06 9183.3 1779.06 9171.3 1845.06 9158.3 1912.06 9146.3 1979.06 9134.3 2046.07 9121.3 2113.07 9109.3 2180.07 9096.3 2247.07 9084.3 2314.08 9072.3 2380.08 9059.3 2447.08 9047.3 2514.08 9035.3 2581.08 9022.3 2648.09 9010.3 2715.09 8997.29 2782.09 8985 2849.09 8985 2915.1 8985 2982.1 8985 3049.1 8985 3116.1 8985 3183.1 8985 3250.11 8985 3317.11 8985 3384.11 8985 3450.11 8985 3517.12 8985 3584.12 8985 3651.12 8985 3718.12 8985 3785.12 8985 3852.13 8985 3919.13 8985 3986.13 8985 4052.13 8985 4119.14 8985 4186.14 8985 4253.14 8985 4320.14 8985 4387.14 8985 4454.15 8985 4521.15 8985 4587.15 8985 4654.15 8985 4721.15 8985 4788 8985" stroke="#264478" stroke-width="10.3125" stroke-linecap="round" stroke-linejoin="round" stroke-miterlimit="10" stroke-opacity="1" fill="none" fill-rule="nonzero"/></g><g clip-path="url(#clip11)"><path d="M1645 9188 1712.06 9168.3 1779.06 9148.3 1845.06 9127.3 1912.06 9107.3 1979.06 9087.3 2046.07 9067.3 2113.07 9047.3 2180.07 9027.3 2247.07 9007.3 2314.08 8986.29 2380.08 8966.29 2447.08 8946.29 2514.08 8926.29 2581.08 8906.29 2648.09 8886.29 2715.09 8866.29 2782.09 8846.29 2849.09 8838.29 2915.1 8830.29 2982.1 8822.29 3049.1 8815.29 3116.1 8807.29 3183.1 8799.29 3250.11 8791.29 3317.11 8784.29 3384.11 8776.29 3450.11 8768.29 3517.12 8760.29 3584.12 8753.29 3651.12 8745.29 3718.12 8737.29 3785.12 8729.29 3852.13 8722.29 3919.13 8714.29 3986.13 8706.29 4052.13 8698.29 4119.14 8691.29 4186.14 8683.29 4253.14 8675.28 4320.14 8667.28 4387.14 8660.28 4454.15 8652.28 4521.15 8644.28 4587.15 8636.28 4654.15 8629.28 4721.15 8621.28 4788 8613" stroke="#9E480E" stroke-width="10.3125" stroke-linecap="round" stroke-linejoin="round" stroke-miterlimit="10" stroke-opacity="1" fill="none" fill-rule="nonzero"/></g><g clip-path="url(#clip12)"><path d="M1645 9186 1712.06 9164.3 1779.06 9142.3 1845.06 9120.3 1912.06 9098.3 1979.06 9076.3 2046.07 9053.3 2113.07 9031.3 2180.07 9009.3 2247.07 8987.29 2314.08 8965.29 2380.08 8943.29 2447.08 8921.29 2514.08 8899.29 2581.08 8877.29 2648.09 8855.29 2715.09 8833.29 2782.09 8811.29 2849.09 8801.29 2915.1 8791.29 2982.1 8782.29 3049.1 8772.29 3116.1 8762.29 3183.1 8753.29 3250.11 8743.29 3317.11 8733.29 3384.11 8724.29 3450.11 8714.29 3517.12 8704.29 3584.12 8694.29 3651.12 8685.29 3718.12 8675.29 3785.12 8665.28 3852.13 8656.28 3919.13 8646.28 3986.13 8636.28 4052.13 8627.28 4119.14 8617.28 4186.14 8607.28 4253.14 8598.28 4320.14 8588.28 4387.14 8578.28 4454.15 8569.28 4521.15 8559.28 4587.15 8549.28 4654.15 8540.28 4721.15 8530.28 4788 8520" stroke="#636363" stroke-width="10.3125" stroke-linecap="round" stroke-linejoin="round" stroke-miterlimit="10" stroke-opacity="1" fill="none" fill-rule="nonzero"/></g><g clip-path="url(#clip13)"><path d="M1645 9177 1712.06 9144.3 1779.06 9113.3 1845.06 9081.3 1912.06 9049.3 1979.06 9017.3 2046.07 8986.29 2113.07 8954.29 2180.07 8922.29 2247.07 8890.29 2314.08 8859.29 2380.08 8827.29 2447.08 8795.29 2514.08 8763.29 2581.08 8732.29 2648.09 8700.29 2715.09 8668.28 2782.09 8636.28 2849.09 8617.28 2915.1 8598.28 2982.1 8578.28 3049.1 8559.28 3116.1 8540.28 3183.1 8520.28 3250.11 8501.28 3317.11 8481.28 3384.11 8462.28 3450.11 8443.28 3517.12 8423.28 3584.12 8404.28 3651.12 8385.28 3718.12 8365.27 3785.12 8346.27 3852.13 8327.27 3919.13 8307.27 3986.13 8288.27 4052.13 8268.27 4119.14 8249.27 4186.14 8230.27 4253.14 8210.27 4320.14 8191.27 4387.14 8172.27 4454.15 8152.27 4521.15 8133.27 4587.15 8114.27 4654.15 8094.27 4721.15 8075.26 4788 8056" stroke="#997300" stroke-width="10.3125" stroke-linecap="round" stroke-linejoin="round" stroke-miterlimit="10" stroke-opacity="1" fill="none" fill-rule="nonzero"/></g><g clip-path="url(#clip14)"><text fill="#595959" fill-opacity="1" font-family="Segoe UI,Segoe UI_MSFontService,sans-serif" font-style="normal" font-variant="normal" font-weight="400" font-stretch="normal" font-size="41" text-anchor="start" direction="ltr" writing-mode="lr-tb" unicode-bidi="normal" text-decoration="none" transform="matrix(1 0 0 1 1546.87 9928)">0</text></g><g clip-path="url(#clip15)"><text fill="#595959" fill-opacity="1" font-family="Segoe UI,Segoe UI_MSFontService,sans-serif" font-style="normal" font-variant="normal" font-weight="400" font-stretch="normal" font-size="41" text-anchor="start" direction="ltr" writing-mode="lr-tb" unicode-bidi="normal" text-decoration="none" transform="matrix(1 0 0 1 1524.65 9742)">10</text></g><g clip-path="url(#clip16)"><text fill="#595959" fill-opacity="1" font-family="Segoe UI,Segoe UI_MSFontService,sans-serif" font-style="normal" font-variant="normal" font-weight="400" font-stretch="normal" font-size="41" text-anchor="start" direction="ltr" writing-mode="lr-tb" unicode-bidi="normal" text-decoration="none" transform="matrix(1 0 0 1 1524.65 9556)">20</text></g><g clip-path="url(#clip17)"><text fill="#595959" fill-opacity="1" font-family="Segoe UI,Segoe UI_MSFontService,sans-serif" font-style="normal" font-variant="normal" font-weight="400" font-stretch="normal" font-size="41" text-anchor="start" direction="ltr" writing-mode="lr-tb" unicode-bidi="normal" text-decoration="none" transform="matrix(1 0 0 1 1524.65 9370)">30</text></g><g clip-path="url(#clip18)"><text fill="#595959" fill-opacity="1" font-family="Segoe UI,Segoe UI_MSFontService,sans-serif" font-style="normal" font-variant="normal" font-weight="400" font-stretch="normal" font-size="41" text-anchor="start" direction="ltr" writing-mode="lr-tb" unicode-bidi="normal" text-decoration="none" transform="matrix(1 0 0 1 1524.65 9184)">40</text></g><g clip-path="url(#clip19)"><text fill="#595959" fill-opacity="1" font-family="Segoe UI,Segoe UI_MSFontService,sans-serif" font-style="normal" font-variant="normal" font-weight="400" font-stretch="normal" font-size="41" text-anchor="start" direction="ltr" writing-mode="lr-tb" unicode-bidi="normal" text-decoration="none" transform="matrix(1 0 0 1 1524.65 8998)">50</text></g><g clip-path="url(#clip20)"><text fill="#595959" fill-opacity="1" font-family="Segoe UI,Segoe UI_MSFontService,sans-serif" font-style="normal" font-variant="normal" font-weight="400" font-stretch="normal" font-size="41" text-anchor="start" direction="ltr" writing-mode="lr-tb" unicode-bidi="normal" text-decoration="none" transform="matrix(1 0 0 1 1524.65 8812)">60</text></g><g clip-path="url(#clip21)"><text fill="#595959" fill-opacity="1" font-family="Segoe UI,Segoe UI_MSFontService,sans-serif" font-style="normal" font-variant="normal" font-weight="400" font-stretch="normal" font-size="41" text-anchor="start" direction="ltr" writing-mode="lr-tb" unicode-bidi="normal" text-decoration="none" transform="matrix(1 0 0 1 1524.65 8627)">70</text></g><g clip-path="url(#clip22)"><text fill="#595959" fill-opacity="1" font-family="Segoe UI,Segoe UI_MSFontService,sans-serif" font-style="normal" font-variant="normal" font-weight="400" font-stretch="normal" font-size="41" text-anchor="start" direction="ltr" writing-mode="lr-tb" unicode-bidi="normal" text-decoration="none" transform="matrix(1 0 0 1 1524.65 8441)">80</text></g><g clip-path="url(#clip23)"><text fill="#595959" fill-opacity="1" font-family="Segoe UI,Segoe UI_MSFontService,sans-serif" font-style="normal" font-variant="normal" font-weight="400" font-stretch="normal" font-size="41" text-anchor="start" direction="ltr" writing-mode="lr-tb" unicode-bidi="normal" text-decoration="none" transform="matrix(1 0 0 1 1524.65 8255)">90</text></g><g clip-path="url(#clip24)"><text fill="#595959" fill-opacity="1" font-family="Segoe UI,Segoe UI_MSFontService,sans-serif" font-style="normal" font-variant="normal" font-weight="400" font-stretch="normal" font-size="41" text-anchor="start" direction="ltr" writing-mode="lr-tb" unicode-bidi="normal" text-decoration="none" transform="matrix(1 0 0 1 1502.42 8069)">100</text></g><g clip-path="url(#clip25)"><text fill="#595959" fill-opacity="1" font-family="Segoe UI,Segoe UI_MSFontService,sans-serif" font-style="normal" font-variant="normal" font-weight="400" font-stretch="normal" font-size="41" text-anchor="start" direction="ltr" writing-mode="lr-tb" unicode-bidi="normal" text-decoration="none" transform="matrix(1 0 0 1 1585.02 9989)">Jan/22</text></g><g clip-path="url(#clip26)"><text fill="#595959" fill-opacity="1" font-family="Segoe UI,Segoe UI_MSFontService,sans-serif" font-style="normal" font-variant="normal" font-weight="400" font-stretch="normal" font-size="41" text-anchor="start" direction="ltr" writing-mode="lr-tb" unicode-bidi="normal" text-decoration="none" transform="matrix(1 0 0 1 2387.59 9989)">Jan/23</text></g><g clip-path="url(#clip27)"><text fill="#595959" fill-opacity="1" font-family="Segoe UI,Segoe UI_MSFontService,sans-serif" font-style="normal" font-variant="normal" font-weight="400" font-stretch="normal" font-size="41" text-anchor="start" direction="ltr" writing-mode="lr-tb" unicode-bidi="normal" text-decoration="none" transform="matrix(1 0 0 1 3190.17 9989)">Jan/24</text></g><g clip-path="url(#clip28)"><text fill="#595959" fill-opacity="1" font-family="Segoe UI,Segoe UI_MSFontService,sans-serif" font-style="normal" font-variant="normal" font-weight="400" font-stretch="normal" font-size="41" text-anchor="start" direction="ltr" writing-mode="lr-tb" unicode-bidi="normal" text-decoration="none" transform="matrix(1 0 0 1 3992.74 9989)">Jan/25</text></g><g clip-path="url(#clip29)"><text fill="#595959" fill-opacity="1" font-family="Segoe UI,Segoe UI_MSFontService,sans-serif" font-style="normal" font-variant="normal" font-weight="400" font-stretch="normal" font-size="46" text-anchor="start" direction="ltr" writing-mode="lr-tb" unicode-bidi="normal" text-decoration="none" transform="matrix(6.12323e-17 -1 1 6.12323e-17 1476.7 8227)">Millions</text></g><g clip-path="url(#clip30)"><text fill="#595959" fill-opacity="1" font-family="Segoe UI,Segoe UI_MSFontService,sans-serif" font-style="normal" font-variant="normal" font-weight="400" font-stretch="normal" font-size="64" text-anchor="start" direction="ltr" writing-mode="lr-tb" unicode-bidi="normal" text-decoration="none" transform="matrix(1 0 0 1 3017.25 7982)">Vesting</text></g><g clip-path="url(#clip31)"><path d="M1710 10070 1798 10070" stroke="#4472C4" stroke-width="10.3125" stroke-linecap="round" stroke-linejoin="round" stroke-miterlimit="10" stroke-opacity="1" fill="none" fill-rule="evenodd"/></g><g clip-path="url(#clip32)"><text fill="#595959" fill-opacity="1" font-family="Segoe UI,Segoe UI_MSFontService,sans-serif" font-style="normal" font-variant="normal" font-weight="400" font-stretch="normal" font-size="41" text-anchor="start" direction="ltr" writing-mode="lr-tb" unicode-bidi="normal" text-decoration="none" transform="matrix(1 0 0 1 1807.78 10083)">Liquidity</text></g><g clip-path="url(#clip33)"><path d="M2020 10070 2108 10070" stroke="#ED7D31" stroke-width="10.3125" stroke-linecap="round" stroke-linejoin="round" stroke-miterlimit="10" stroke-opacity="1" fill="none" fill-rule="evenodd"/></g><g clip-path="url(#clip34)"><text fill="#595959" fill-opacity="1" font-family="Segoe UI,Segoe UI_MSFontService,sans-serif" font-style="normal" font-variant="normal" font-weight="400" font-stretch="normal" font-size="41" text-anchor="start" direction="ltr" writing-mode="lr-tb" unicode-bidi="normal" text-decoration="none" transform="matrix(1 0 0 1 2117.58 10083)">Marketing</text></g><g clip-path="url(#clip35)"><path d="M2361 10070 2449 10070" stroke="#A5A5A5" stroke-width="10.3125" stroke-linecap="round" stroke-linejoin="round" stroke-miterlimit="10" stroke-opacity="1" fill="none" fill-rule="evenodd"/></g><g clip-path="url(#clip36)"><text fill="#595959" fill-opacity="1" font-family="Segoe UI,Segoe UI_MSFontService,sans-serif" font-style="normal" font-variant="normal" font-weight="400" font-stretch="normal" font-size="41" text-anchor="start" direction="ltr" writing-mode="lr-tb" unicode-bidi="normal" text-decoration="none" transform="matrix(1 0 0 1 2458.18 10083)">Public</text></g><g clip-path="url(#clip37)"><path d="M2625 10070 2713 10070" stroke="#FFC000" stroke-width="10.3125" stroke-linecap="round" stroke-linejoin="round" stroke-miterlimit="10" stroke-opacity="1" fill="none" fill-rule="evenodd"/></g><g clip-path="url(#clip38)"><text fill="#595959" fill-opacity="1" font-family="Segoe UI,Segoe UI_MSFontService,sans-serif" font-style="normal" font-variant="normal" font-weight="400" font-stretch="normal" font-size="41" text-anchor="start" direction="ltr" writing-mode="lr-tb" unicode-bidi="normal" text-decoration="none" transform="matrix(1 0 0 1 2722.44 10083)">Testnet</text></g><g clip-path="url(#clip39)"><path d="M2913 10070 3001 10070" stroke="#5B9BD5" stroke-width="10.3125" stroke-linecap="round" stroke-linejoin="round" stroke-miterlimit="10" stroke-opacity="1" fill="none" fill-rule="evenodd"/></g><g clip-path="url(#clip40)"><text fill="#595959" fill-opacity="1" font-family="Segoe UI,Segoe UI_MSFontService,sans-serif" font-style="normal" font-variant="normal" font-weight="400" font-stretch="normal" font-size="41" text-anchor="start" direction="ltr" writing-mode="lr-tb" unicode-bidi="normal" text-decoration="none" transform="matrix(1 0 0 1 3010.53 10083)">Community</text></g><g clip-path="url(#clip41)"><path d="M3279 10070 3367 10070" stroke="#70AD47" stroke-width="10.3125" stroke-linecap="round" stroke-linejoin="round" stroke-miterlimit="10" stroke-opacity="1" fill="none" fill-rule="evenodd"/></g><g clip-path="url(#clip42)"><text fill="#595959" fill-opacity="1" font-family="Segoe UI,Segoe UI_MSFontService,sans-serif" font-style="normal" font-variant="normal" font-weight="400" font-stretch="normal" font-size="41" text-anchor="start" direction="ltr" writing-mode="lr-tb" unicode-bidi="normal" text-decoration="none" transform="matrix(1 0 0 1 3376.45 10083)">Seed</text></g><g clip-path="url(#clip43)"><path d="M3523 10070 3611 10070" stroke="#264478" stroke-width="10.3125" stroke-linecap="round" stroke-linejoin="round" stroke-miterlimit="10" stroke-opacity="1" fill="none" fill-rule="evenodd"/></g><g clip-path="url(#clip44)"><text fill="#595959" fill-opacity="1" font-family="Segoe UI,Segoe UI_MSFontService,sans-serif" font-style="normal" font-variant="normal" font-weight="400" font-stretch="normal" font-size="41" text-anchor="start" direction="ltr" writing-mode="lr-tb" unicode-bidi="normal" text-decoration="none" transform="matrix(1 0 0 1 3620.32 10083)">Private</text></g><g clip-path="url(#clip45)"><path d="M3801 10070 3889 10070" stroke="#9E480E" stroke-width="10.3125" stroke-linecap="round" stroke-linejoin="round" stroke-miterlimit="10" stroke-opacity="1" fill="none" fill-rule="evenodd"/></g><g clip-path="url(#clip46)"><text fill="#595959" fill-opacity="1" font-family="Segoe UI,Segoe UI_MSFontService,sans-serif" font-style="normal" font-variant="normal" font-weight="400" font-stretch="normal" font-size="41" text-anchor="start" direction="ltr" writing-mode="lr-tb" unicode-bidi="normal" text-decoration="none" transform="matrix(1 0 0 1 3898.59 10083)">Team</text></g><g clip-path="url(#clip47)"><path d="M4056 10070 4144 10070" stroke="#636363" stroke-width="10.3125" stroke-linecap="round" stroke-linejoin="round" stroke-miterlimit="10" stroke-opacity="1" fill="none" fill-rule="evenodd"/></g><g clip-path="url(#clip48)"><text fill="#595959" fill-opacity="1" font-family="Segoe UI,Segoe UI_MSFontService,sans-serif" font-style="normal" font-variant="normal" font-weight="400" font-stretch="normal" font-size="41" text-anchor="start" direction="ltr" writing-mode="lr-tb" unicode-bidi="normal" text-decoration="none" transform="matrix(1 0 0 1 4152.81 10083)">Advisors</text></g><g clip-path="url(#clip49)"><path d="M4364 10070 4452 10070" stroke="#997300" stroke-width="10.3125" stroke-linecap="round" stroke-linejoin="round" stroke-miterlimit="10" stroke-opacity="1" fill="none" fill-rule="evenodd"/></g><g clip-path="url(#clip50)"><text fill="#595959" fill-opacity="1" font-family="Segoe UI,Segoe UI_MSFontService,sans-serif" font-style="normal" font-variant="normal" font-weight="400" font-stretch="normal" font-size="41" text-anchor="start" direction="ltr" writing-mode="lr-tb" unicode-bidi="normal" text-decoration="none" transform="matrix(1 0 0 1 4461.53 10083)">DAO</text></g></g></svg>