<svg width="3474" height="2484" xmlns="http://www.w3.org/2000/svg" xmlns:xlink="http://www.w3.org/1999/xlink" overflow="hidden"><defs><clipPath id="clip0"><rect x="1242" y="7975" width="3474" height="2484"/></clipPath><clipPath id="clip1"><rect x="1246" y="7975" width="3465" height="2484"/></clipPath><clipPath id="clip2"><rect x="1246" y="7975" width="3465" height="2484"/></clipPath><clipPath id="clip3"><rect x="1246" y="7975" width="3465" height="2484"/></clipPath><clipPath id="clip4"><rect x="1246" y="7975" width="3465" height="2484"/></clipPath><clipPath id="clip5"><rect x="1623" y="8034" width="2961" height="2146"/></clipPath><clipPath id="clip6"><rect x="1623" y="8034" width="2961" height="2146"/></clipPath><clipPath id="clip7"><rect x="1623" y="8034" width="2961" height="2146"/></clipPath><clipPath id="clip8"><rect x="1623" y="8034" width="2961" height="2146"/></clipPath><clipPath id="clip9"><rect x="1623" y="8034" width="2961" height="2146"/></clipPath><clipPath id="clip10"><rect x="1246" y="7975" width="3465" height="2484"/></clipPath><clipPath id="clip11"><rect x="1246" y="7975" width="3465" height="2484"/></clipPath><clipPath id="clip12"><rect x="1246" y="7975" width="3465" height="2484"/></clipPath><clipPath id="clip13"><rect x="1246" y="7975" width="3465" height="2484"/></clipPath><clipPath id="clip14"><rect x="1246" y="7975" width="3465" height="2484"/></clipPath><clipPath id="clip15"><rect x="1246" y="7975" width="3465" height="2484"/></clipPath><clipPath id="clip16"><rect x="1246" y="7975" width="3465" height="2484"/></clipPath><clipPath id="clip17"><rect x="1246" y="7975" width="3465" height="2484"/></clipPath><clipPath id="clip18"><rect x="1246" y="7975" width="3465" height="2484"/></clipPath><clipPath id="clip19"><rect x="1246" y="7975" width="3465" height="2484"/></clipPath><clipPath id="clip20"><rect x="1246" y="7975" width="3465" height="2484"/></clipPath><clipPath id="clip21"><rect x="1246" y="7975" width="3465" height="2484"/></clipPath><clipPath id="clip22"><rect x="1246" y="7975" width="3465" height="2484"/></clipPath><clipPath id="clip23"><rect x="1246" y="7975" width="3465" height="2484"/></clipPath><clipPath id="clip24"><rect x="1246" y="7975" width="3465" height="2484"/></clipPath><clipPath id="clip25"><rect x="1246" y="7975" width="3465" height="2484"/></clipPath><clipPath id="clip26"><rect x="1246" y="7975" width="3465" height="2484"/></clipPath><clipPath id="clip27"><rect x="1246" y="7975" width="3465" height="2484"/></clipPath><clipPath id="clip28"><rect x="1246" y="7975" width="3465" height="2484"/></clipPath><clipPath id="clip29"><rect x="1246" y="7975" width="3465" height="2484"/></clipPath><clipPath id="clip30"><rect x="1246" y="7975" width="3465" height="2484"/></clipPath><clipPath id="clip31"><rect x="1246" y="7975" width="3465" height="2484"/></clipPath><clipPath id="clip32"><rect x="1246" y="7975" width="3465" height="2484"/></clipPath><clipPath id="clip33"><rect x="1246" y="7975" width="3465" height="2484"/></clipPath><clipPath id="clip34"><rect x="1246" y="7975" width="3465" height="2484"/></clipPath></defs><g clip-path="url(#clip0)" transform="translate(-1242 -7975)"><rect x="1247" y="7975" width="3465" height="2484" fill="#FFFFFF" fill-opacity="1"/><g clip-path="url(#clip1)"><path d="M1623.5 9962.83 4581.5 9962.83M1623.5 9748.82 4581.5 9748.82M1623.5 9534.81 4581.5 9534.81M1623.5 9319.81 4581.5 9319.81M1623.5 9105.8 4581.5 9105.8M1623.5 8891.79 4581.5 8891.79M1623.5 8677.79 4581.5 8677.79M1623.5 8462.78 4581.5 8462.78M1623.5 8248.77 4581.5 8248.77M1623.5 8034.5 4581.5 8034.5" stroke="#D9D9D9" stroke-width="3.4375" stroke-linecap="butt" stroke-linejoin="round" stroke-miterlimit="10" stroke-opacity="1" fill="none" fill-rule="nonzero"/></g><g clip-path="url(#clip2)"><rect x="1623.5" y="8034.5" width="2958" height="2143" stroke="#4472C4" stroke-width="3.4375" stroke-linecap="butt" stroke-linejoin="round" stroke-miterlimit="10" stroke-opacity="0" fill="none"/></g><g clip-path="url(#clip3)"><path d="M1623.5 10177.5 4581.5 10177.5" stroke="#D9D9D9" stroke-width="3.4375" stroke-linecap="butt" stroke-linejoin="round" stroke-miterlimit="10" stroke-opacity="1" fill="none" fill-rule="evenodd"/></g><g clip-path="url(#clip4)"><path d="M1623.5 10177.5 1623.5 10196.5M2378.58 10177.5 2378.58 10196.5M3133.6 10177.5 3133.6 10196.5M3889.5 10177.5 3889.5 10196.5" stroke="#D9D9D9" stroke-width="3.4375" stroke-linecap="butt" stroke-linejoin="round" stroke-miterlimit="10" stroke-opacity="1" fill="none" fill-rule="nonzero"/></g><g clip-path="url(#clip5)"><path d="M1624 9963 1686.06 9963 1749.06 9963 1812.06 9963 1875.06 9963 1938.06 9963 2001.07 9963 2064.07 9963 2127.07 9963 2190.07 9963 2253.07 9963 2316.08 9963 2379.08 9963 2442.08 9963 2505.08 9963 2567.08 9963 2630.09 9963 2693.09 9963 2756.09 9963 2819.09 9963 2882.09 9963 2945.1 9963 3008.1 9963 3071.1 9963 3134.1 9963 3197.1 9963 3260.11 9963 3323.11 9963 3386.11 9963 3449.11 9963 3511.12 9963 3574.12 9963 3637.12 9963 3700.12 9963 3763.12 9963 3826.13 9963 3889.13 9963 3952.13 9963 4015.13 9963 4078.13 9963 4141.14 9963 4204.14 9963 4267.14 9963 4330.14 9963 4393.14 9963 4455.15 9963 4518.15 9963 4582 9963" stroke="#4472C4" stroke-width="10.3125" stroke-linecap="round" stroke-linejoin="round" stroke-miterlimit="10" stroke-opacity="1" fill="none" fill-rule="nonzero"/></g><g clip-path="url(#clip6)"><path d="M1624 9954 1686.06 9945.33 1749.06 9936.33 1812.06 9927.33 1875.06 9918.33 1938.06 9909.33 2001.07 9900.33 2064.07 9891.32 2127.07 9882.32 2190.07 9873.32 2253.07 9864.32 2316.08 9855.32 2379.08 9847.32 2442.08 9838.32 2505.08 9829.32 2567.08 9820.32 2630.09 9811.32 2693.09 9802.32 2756.09 9793.32 2819.09 9784.32 2882.09 9775.32 2945.1 9766.32 3008.1 9757.32 3071.1 9748.32 3134.1 9739.32 3197.1 9730.32 3260.11 9722.32 3323.11 9713.32 3386.11 9704.32 3449.11 9695.32 3511.12 9686.32 3574.12 9677.32 3637.12 9668.32 3700.12 9659.32 3763.12 9650.32 3826.13 9641.32 3889.13 9632.32 3952.13 9623.32 4015.13 9614.32 4078.13 9605.32 4141.14 9597.32 4204.14 9588.31 4267.14 9579.31 4330.14 9570.31 4393.14 9561.31 4455.15 9552.31 4518.15 9543.31 4582 9534" stroke="#ED7D31" stroke-width="10.3125" stroke-linecap="round" stroke-linejoin="round" stroke-miterlimit="10" stroke-opacity="1" fill="none" fill-rule="nonzero"/></g><g clip-path="url(#clip7)"><path d="M1624 9783 1686.06 9764.32 1749.06 9745.32 1812.06 9726.32 1875.06 9707.32 1938.06 9688.32 2001.07 9669.32 2064.07 9650.32 2127.07 9631.32 2190.07 9612.32 2253.07 9593.31 2316.08 9574.31 2379.08 9555.31 2442.08 9536.31 2505.08 9517.31 2567.08 9498.31 2630.09 9479.31 2693.09 9460.31 2756.09 9441.31 2819.09 9422.31 2882.09 9403.31 2945.1 9385.31 3008.1 9366.31 3071.1 9347.31 3134.1 9328.31 3197.1 9309.31 3260.11 9290.3 3323.11 9271.3 3386.11 9252.3 3449.11 9233.3 3511.12 9214.3 3574.12 9195.3 3637.12 9176.3 3700.12 9157.3 3763.12 9138.3 3826.13 9119.3 3889.13 9100.3 3952.13 9081.3 4015.13 9062.3 4078.13 9043.3 4141.14 9024.3 4204.14 9005.29 4267.14 8986.29 4330.14 8967.29 4393.14 8948.29 4455.15 8929.29 4518.15 8910.29 4582 8892" stroke="#A5A5A5" stroke-width="10.3125" stroke-linecap="round" stroke-linejoin="round" stroke-miterlimit="10" stroke-opacity="1" fill="none" fill-rule="nonzero"/></g><g clip-path="url(#clip8)"><path d="M1624 9783 1686.06 9764.32 1749.06 9745.32 1812.06 9726.32 1875.06 9707.32 1938.06 9688.32 2001.07 9656.32 2064.07 9625.32 2127.07 9593.31 2190.07 9561.31 2253.07 9529.31 2316.08 9498.31 2379.08 9466.31 2442.08 9434.31 2505.08 9403.31 2567.08 9371.31 2630.09 9339.31 2693.09 9307.31 2756.09 9276.3 2819.09 9244.3 2882.09 9212.3 2945.1 9180.3 3008.1 9149.3 3071.1 9117.3 3134.1 9085.3 3197.1 9054.3 3260.11 9022.3 3323.11 8990.29 3386.11 8958.29 3449.11 8927.29 3511.12 8895.29 3574.12 8863.29 3637.12 8831.29 3700.12 8800.29 3763.12 8768.29 3826.13 8736.29 3889.13 8705.29 3952.13 8673.29 4015.13 8641.28 4078.13 8609.28 4141.14 8578.28 4204.14 8546.28 4267.14 8514.28 4330.14 8483.28 4393.14 8451.28 4455.15 8419.28 4518.15 8387.28 4582 8356" stroke="#FFC000" stroke-width="10.3125" stroke-linecap="round" stroke-linejoin="round" stroke-miterlimit="10" stroke-opacity="1" fill="none" fill-rule="nonzero"/></g><g clip-path="url(#clip9)"><path d="M1624 9689 1686.06 9657.32 1749.06 9624.32 1812.06 9592.31 1875.06 9560.31 1938.06 9527.31 2001.07 9482.31 2064.07 9437.31 2127.07 9392.31 2190.07 9347.31 2253.07 9302.3 2316.08 9257.3 2379.08 9212.3 2442.08 9166.3 2505.08 9121.3 2567.08 9076.3 2630.09 9031.3 2693.09 8986.29 2756.09 8954.29 2819.09 8923.29 2882.09 8891.29 2945.1 8859.29 3008.1 8827.29 3071.1 8796.29 3134.1 8764.29 3197.1 8732.29 3260.11 8700.29 3323.11 8669.28 3386.11 8637.28 3449.11 8605.28 3511.12 8574.28 3574.12 8542.28 3637.12 8510.28 3700.12 8478.28 3763.12 8447.28 3826.13 8415.28 3889.13 8383.27 3952.13 8351.27 4015.13 8320.27 4078.13 8288.27 4141.14 8256.27 4204.14 8225.27 4267.14 8193.27 4330.14 8161.27 4393.14 8129.27 4455.15 8098.27 4518.15 8066.26 4582 8034" stroke="#5B9BD5" stroke-width="10.3125" stroke-linecap="round" stroke-linejoin="round" stroke-miterlimit="10" stroke-opacity="1" fill="none" fill-rule="nonzero"/></g><g clip-path="url(#clip10)"><text fill="#595959" fill-opacity="1" font-family="Segoe UI,Segoe UI_MSFontService,sans-serif" font-style="normal" font-variant="normal" font-weight="400" font-stretch="normal" font-size="55" text-anchor="start" direction="ltr" writing-mode="lr-tb" unicode-bidi="normal" text-decoration="none" transform="matrix(1 0 0 1 1537.52 10195)">0</text></g><g clip-path="url(#clip11)"><text fill="#595959" fill-opacity="1" font-family="Segoe UI,Segoe UI_MSFontService,sans-serif" font-style="normal" font-variant="normal" font-weight="400" font-stretch="normal" font-size="55" text-anchor="start" direction="ltr" writing-mode="lr-tb" unicode-bidi="normal" text-decoration="none" transform="matrix(1 0 0 1 1306.11 9981)">10.000.000</text></g><g clip-path="url(#clip12)"><text fill="#595959" fill-opacity="1" font-family="Segoe UI,Segoe UI_MSFontService,sans-serif" font-style="normal" font-variant="normal" font-weight="400" font-stretch="normal" font-size="55" text-anchor="start" direction="ltr" writing-mode="lr-tb" unicode-bidi="normal" text-decoration="none" transform="matrix(1 0 0 1 1306.11 9767)">20.000.000</text></g><g clip-path="url(#clip13)"><text fill="#595959" fill-opacity="1" font-family="Segoe UI,Segoe UI_MSFontService,sans-serif" font-style="normal" font-variant="normal" font-weight="400" font-stretch="normal" font-size="55" text-anchor="start" direction="ltr" writing-mode="lr-tb" unicode-bidi="normal" text-decoration="none" transform="matrix(1 0 0 1 1306.11 9552)">30.000.000</text></g><g clip-path="url(#clip14)"><text fill="#595959" fill-opacity="1" font-family="Segoe UI,Segoe UI_MSFontService,sans-serif" font-style="normal" font-variant="normal" font-weight="400" font-stretch="normal" font-size="55" text-anchor="start" direction="ltr" writing-mode="lr-tb" unicode-bidi="normal" text-decoration="none" transform="matrix(1 0 0 1 1306.11 9338)">40.000.000</text></g><g clip-path="url(#clip15)"><text fill="#595959" fill-opacity="1" font-family="Segoe UI,Segoe UI_MSFontService,sans-serif" font-style="normal" font-variant="normal" font-weight="400" font-stretch="normal" font-size="55" text-anchor="start" direction="ltr" writing-mode="lr-tb" unicode-bidi="normal" text-decoration="none" transform="matrix(1 0 0 1 1306.11 9124)">50.000.000</text></g><g clip-path="url(#clip16)"><text fill="#595959" fill-opacity="1" font-family="Segoe UI,Segoe UI_MSFontService,sans-serif" font-style="normal" font-variant="normal" font-weight="400" font-stretch="normal" font-size="55" text-anchor="start" direction="ltr" writing-mode="lr-tb" unicode-bidi="normal" text-decoration="none" transform="matrix(1 0 0 1 1306.11 8910)">60.000.000</text></g><g clip-path="url(#clip17)"><text fill="#595959" fill-opacity="1" font-family="Segoe UI,Segoe UI_MSFontService,sans-serif" font-style="normal" font-variant="normal" font-weight="400" font-stretch="normal" font-size="55" text-anchor="start" direction="ltr" writing-mode="lr-tb" unicode-bidi="normal" text-decoration="none" transform="matrix(1 0 0 1 1306.11 8695)">70.000.000</text></g><g clip-path="url(#clip18)"><text fill="#595959" fill-opacity="1" font-family="Segoe UI,Segoe UI_MSFontService,sans-serif" font-style="normal" font-variant="normal" font-weight="400" font-stretch="normal" font-size="55" text-anchor="start" direction="ltr" writing-mode="lr-tb" unicode-bidi="normal" text-decoration="none" transform="matrix(1 0 0 1 1306.11 8481)">80.000.000</text></g><g clip-path="url(#clip19)"><text fill="#595959" fill-opacity="1" font-family="Segoe UI,Segoe UI_MSFontService,sans-serif" font-style="normal" font-variant="normal" font-weight="400" font-stretch="normal" font-size="55" text-anchor="start" direction="ltr" writing-mode="lr-tb" unicode-bidi="normal" text-decoration="none" transform="matrix(1 0 0 1 1306.11 8267)">90.000.000</text></g><g clip-path="url(#clip20)"><text fill="#595959" fill-opacity="1" font-family="Segoe UI,Segoe UI_MSFontService,sans-serif" font-style="normal" font-variant="normal" font-weight="400" font-stretch="normal" font-size="55" text-anchor="start" direction="ltr" writing-mode="lr-tb" unicode-bidi="normal" text-decoration="none" transform="matrix(1 0 0 1 1276.46 8052)">100.000.000</text></g><g clip-path="url(#clip21)"><text fill="#595959" fill-opacity="1" font-family="Segoe UI,Segoe UI_MSFontService,sans-serif" font-style="normal" font-variant="normal" font-weight="400" font-stretch="normal" font-size="55" text-anchor="start" direction="ltr" writing-mode="lr-tb" unicode-bidi="normal" text-decoration="none" transform="matrix(1 0 0 1 1543.8 10276)">Jan/22</text></g><g clip-path="url(#clip22)"><text fill="#595959" fill-opacity="1" font-family="Segoe UI,Segoe UI_MSFontService,sans-serif" font-style="normal" font-variant="normal" font-weight="400" font-stretch="normal" font-size="55" text-anchor="start" direction="ltr" writing-mode="lr-tb" unicode-bidi="normal" text-decoration="none" transform="matrix(1 0 0 1 2299.03 10276)">Jan/23</text></g><g clip-path="url(#clip23)"><text fill="#595959" fill-opacity="1" font-family="Segoe UI,Segoe UI_MSFontService,sans-serif" font-style="normal" font-variant="normal" font-weight="400" font-stretch="normal" font-size="55" text-anchor="start" direction="ltr" writing-mode="lr-tb" unicode-bidi="normal" text-decoration="none" transform="matrix(1 0 0 1 3054.25 10276)">Jan/24</text></g><g clip-path="url(#clip24)"><text fill="#595959" fill-opacity="1" font-family="Segoe UI,Segoe UI_MSFontService,sans-serif" font-style="normal" font-variant="normal" font-weight="400" font-stretch="normal" font-size="55" text-anchor="start" direction="ltr" writing-mode="lr-tb" unicode-bidi="normal" text-decoration="none" transform="matrix(1 0 0 1 3809.48 10276)">Jan/25</text></g><g clip-path="url(#clip25)"><path d="M2027 10376 2115 10376" stroke="#4472C4" stroke-width="10.3125" stroke-linecap="round" stroke-linejoin="round" stroke-miterlimit="10" stroke-opacity="1" fill="none" fill-rule="evenodd"/></g><g clip-path="url(#clip26)"><text fill="#595959" fill-opacity="1" font-family="Segoe UI,Segoe UI_MSFontService,sans-serif" font-style="normal" font-variant="normal" font-weight="400" font-stretch="normal" font-size="64" text-anchor="start" direction="ltr" writing-mode="lr-tb" unicode-bidi="normal" text-decoration="none" transform="matrix(1 0 0 1 2124.63 10398)">CI/CD mining</text></g><g clip-path="url(#clip27)"><path d="M2575 10376 2663 10376" stroke="#ED7D31" stroke-width="10.3125" stroke-linecap="round" stroke-linejoin="round" stroke-miterlimit="10" stroke-opacity="1" fill="none" fill-rule="evenodd"/></g><g clip-path="url(#clip28)"><text fill="#595959" fill-opacity="1" font-family="Segoe UI,Segoe UI_MSFontService,sans-serif" font-style="normal" font-variant="normal" font-weight="400" font-stretch="normal" font-size="64" text-anchor="start" direction="ltr" writing-mode="lr-tb" unicode-bidi="normal" text-decoration="none" transform="matrix(1 0 0 1 2672.36 10398)">Team</text></g><g clip-path="url(#clip29)"><path d="M2897 10376 2985 10376" stroke="#A5A5A5" stroke-width="10.3125" stroke-linecap="round" stroke-linejoin="round" stroke-miterlimit="10" stroke-opacity="1" fill="none" fill-rule="evenodd"/></g><g clip-path="url(#clip30)"><text fill="#595959" fill-opacity="1" font-family="Segoe UI,Segoe UI_MSFontService,sans-serif" font-style="normal" font-variant="normal" font-weight="400" font-stretch="normal" font-size="64" text-anchor="start" direction="ltr" writing-mode="lr-tb" unicode-bidi="normal" text-decoration="none" transform="matrix(1 0 0 1 2994.3 10398)">Company</text></g><g clip-path="url(#clip31)"><path d="M3334 10376 3422 10376" stroke="#FFC000" stroke-width="10.3125" stroke-linecap="round" stroke-linejoin="round" stroke-miterlimit="10" stroke-opacity="1" fill="none" fill-rule="evenodd"/></g><g clip-path="url(#clip32)"><text fill="#595959" fill-opacity="1" font-family="Segoe UI,Segoe UI_MSFontService,sans-serif" font-style="normal" font-variant="normal" font-weight="400" font-stretch="normal" font-size="64" text-anchor="start" direction="ltr" writing-mode="lr-tb" unicode-bidi="normal" text-decoration="none" transform="matrix(1 0 0 1 3431.51 10398)">DAO</text></g><g clip-path="url(#clip33)"><path d="M3636 10376 3724 10376" stroke="#5B9BD5" stroke-width="10.3125" stroke-linecap="round" stroke-linejoin="round" stroke-miterlimit="10" stroke-opacity="1" fill="none" fill-rule="evenodd"/></g><g clip-path="url(#clip34)"><text fill="#595959" fill-opacity="1" font-family="Segoe UI,Segoe UI_MSFontService,sans-serif" font-style="normal" font-variant="normal" font-weight="400" font-stretch="normal" font-size="64" text-anchor="start" direction="ltr" writing-mode="lr-tb" unicode-bidi="normal" text-decoration="none" transform="matrix(1 0 0 1 3733.1 10398)">Backers</text></g></g></svg>